<svg width="68" height="17" viewBox="0 0 68 17" fill="none" xmlns="http://www.w3.org/2000/svg">
<path d="M3.804 12.608C3.436 12.608 3.076 12.58 2.724 12.524C2.372 12.468 2.04 12.384 1.728 12.272C1.416 12.152 1.136 12.008 0.888 11.84C0.768 11.752 0.684 11.652 0.636 11.54C0.596 11.428 0.584 11.32 0.6 11.216C0.624 11.104 0.672 11.008 0.744 10.928C0.816 10.848 0.904 10.8 1.008 10.784C1.112 10.76 1.228 10.792 1.356 10.88C1.716 11.112 2.096 11.284 2.496 11.396C2.896 11.5 3.332 11.552 3.804 11.552C4.484 11.552 4.984 11.432 5.304 11.192C5.632 10.944 5.796 10.624 5.796 10.232C5.796 9.912 5.68 9.66 5.448 9.476C5.216 9.284 4.828 9.132 4.284 9.02L3 8.756C2.24 8.596 1.672 8.332 1.296 7.964C0.928 7.596 0.744 7.1 0.744 6.476C0.744 6.1 0.82 5.756 0.972 5.444C1.132 5.132 1.352 4.864 1.632 4.64C1.912 4.408 2.248 4.232 2.64 4.112C3.032 3.992 3.46 3.932 3.924 3.932C4.42 3.932 4.884 3.996 5.316 4.124C5.756 4.252 6.148 4.448 6.492 4.712C6.596 4.784 6.664 4.876 6.696 4.988C6.736 5.092 6.744 5.196 6.72 5.3C6.704 5.404 6.66 5.492 6.588 5.564C6.516 5.636 6.424 5.68 6.312 5.696C6.2 5.704 6.076 5.664 5.94 5.576C5.628 5.368 5.308 5.22 4.98 5.132C4.66 5.036 4.304 4.988 3.912 4.988C3.52 4.988 3.176 5.048 2.88 5.168C2.592 5.288 2.368 5.456 2.208 5.672C2.056 5.888 1.98 6.144 1.98 6.44C1.98 6.776 2.088 7.044 2.304 7.244C2.52 7.444 2.88 7.596 3.384 7.7L4.656 7.964C5.456 8.132 6.052 8.392 6.444 8.744C6.836 9.096 7.032 9.564 7.032 10.148C7.032 10.524 6.956 10.864 6.804 11.168C6.652 11.464 6.436 11.72 6.156 11.936C5.876 12.152 5.536 12.32 5.136 12.44C4.744 12.552 4.3 12.608 3.804 12.608ZM11.0648 12.608C10.4248 12.608 9.87284 12.488 9.40884 12.248C8.95284 12 8.59684 11.652 8.34084 11.204C8.09284 10.748 7.96884 10.208 7.96884 9.584C7.96884 8.976 8.09284 8.444 8.34084 7.988C8.58884 7.532 8.92884 7.176 9.36084 6.92C9.79284 6.664 10.2848 6.536 10.8368 6.536C11.2448 6.536 11.6088 6.604 11.9288 6.74C12.2488 6.868 12.5208 7.06 12.7448 7.316C12.9768 7.564 13.1488 7.868 13.2608 8.228C13.3808 8.588 13.4408 8.992 13.4408 9.44C13.4408 9.576 13.4008 9.68 13.3208 9.752C13.2408 9.816 13.1208 9.848 12.9608 9.848H8.92884V9.104H12.6248L12.4208 9.272C12.4208 8.872 12.3608 8.532 12.2408 8.252C12.1288 7.972 11.9568 7.76 11.7248 7.616C11.5008 7.464 11.2208 7.388 10.8848 7.388C10.5088 7.388 10.1888 7.476 9.92484 7.652C9.66884 7.828 9.47284 8.072 9.33684 8.384C9.20084 8.696 9.13284 9.06 9.13284 9.476V9.548C9.13284 10.252 9.29684 10.784 9.62484 11.144C9.96084 11.496 10.4448 11.672 11.0768 11.672C11.3168 11.672 11.5688 11.64 11.8328 11.576C12.1048 11.512 12.3608 11.404 12.6008 11.252C12.7368 11.172 12.8568 11.136 12.9608 11.144C13.0728 11.152 13.1608 11.188 13.2248 11.252C13.2968 11.316 13.3408 11.396 13.3568 11.492C13.3728 11.588 13.3568 11.688 13.3088 11.792C13.2608 11.888 13.1768 11.976 13.0568 12.056C12.7848 12.24 12.4688 12.38 12.1088 12.476C11.7488 12.564 11.4008 12.608 11.0648 12.608ZM17.5102 12.608C16.8702 12.608 16.3182 12.488 15.8542 12.248C15.3982 12 15.0422 11.652 14.7862 11.204C14.5382 10.748 14.4142 10.208 14.4142 9.584C14.4142 8.976 14.5382 8.444 14.7862 7.988C15.0342 7.532 15.3742 7.176 15.8062 6.92C16.2382 6.664 16.7302 6.536 17.2822 6.536C17.6902 6.536 18.0542 6.604 18.3742 6.74C18.6942 6.868 18.9662 7.06 19.1902 7.316C19.4222 7.564 19.5942 7.868 19.7062 8.228C19.8262 8.588 19.8862 8.992 19.8862 9.44C19.8862 9.576 19.8462 9.68 19.7662 9.752C19.6862 9.816 19.5662 9.848 19.4062 9.848H15.3742V9.104H19.0702L18.8662 9.272C18.8662 8.872 18.8062 8.532 18.6862 8.252C18.5742 7.972 18.4022 7.76 18.1702 7.616C17.9462 7.464 17.6662 7.388 17.3302 7.388C16.9542 7.388 16.6342 7.476 16.3702 7.652C16.1142 7.828 15.9182 8.072 15.7822 8.384C15.6462 8.696 15.5782 9.06 15.5782 9.476V9.548C15.5782 10.252 15.7422 10.784 16.0702 11.144C16.4062 11.496 16.8902 11.672 17.5222 11.672C17.7622 11.672 18.0142 11.64 18.2782 11.576C18.5502 11.512 18.8062 11.404 19.0462 11.252C19.1822 11.172 19.3022 11.136 19.4062 11.144C19.5182 11.152 19.6062 11.188 19.6702 11.252C19.7422 11.316 19.7862 11.396 19.8022 11.492C19.8182 11.588 19.8022 11.688 19.7542 11.792C19.7062 11.888 19.6222 11.976 19.5022 12.056C19.2302 12.24 18.9142 12.38 18.5542 12.476C18.1942 12.564 17.8462 12.608 17.5102 12.608ZM24.4555 12.584C24.2955 12.584 24.1675 12.548 24.0715 12.476C23.9755 12.404 23.9195 12.308 23.9035 12.188C23.8875 12.068 23.9115 11.932 23.9755 11.78L27.2275 4.484C27.3075 4.292 27.4075 4.156 27.5275 4.076C27.6555 3.996 27.7955 3.956 27.9475 3.956C28.0915 3.956 28.2235 3.996 28.3435 4.076C28.4715 4.156 28.5755 4.292 28.6555 4.484L31.9075 11.78C31.9795 11.932 32.0075 12.072 31.9915 12.2C31.9755 12.32 31.9235 12.416 31.8355 12.488C31.7475 12.552 31.6235 12.584 31.4635 12.584C31.2875 12.584 31.1475 12.54 31.0435 12.452C30.9395 12.364 30.8475 12.228 30.7675 12.044L29.9275 10.1L30.4915 10.436H25.3795L25.9315 10.1L25.1035 12.044C25.0235 12.236 24.9355 12.376 24.8395 12.464C24.7435 12.544 24.6155 12.584 24.4555 12.584ZM27.9235 5.42L26.1115 9.716L25.8115 9.428H30.0475L29.7715 9.716L27.9475 5.42H27.9235ZM35.0915 12.608C34.4675 12.608 33.9955 12.428 33.6755 12.068C33.3635 11.7 33.2075 11.172 33.2075 10.484V4.568C33.2075 4.368 33.2595 4.216 33.3635 4.112C33.4675 4.008 33.6155 3.956 33.8075 3.956C33.9995 3.956 34.1475 4.008 34.2515 4.112C34.3635 4.216 34.4195 4.368 34.4195 4.568V10.412C34.4195 10.812 34.4995 11.112 34.6595 11.312C34.8275 11.504 35.0675 11.6 35.3795 11.6C35.4515 11.6 35.5155 11.6 35.5715 11.6C35.6275 11.592 35.6835 11.584 35.7395 11.576C35.8355 11.568 35.9035 11.596 35.9435 11.66C35.9835 11.716 36.0035 11.836 36.0035 12.02C36.0035 12.188 35.9675 12.32 35.8955 12.416C35.8235 12.504 35.7075 12.56 35.5475 12.584C35.4755 12.592 35.3995 12.596 35.3195 12.596C35.2395 12.604 35.1635 12.608 35.0915 12.608ZM38.7594 12.608C38.1354 12.608 37.6634 12.428 37.3434 12.068C37.0314 11.7 36.8754 11.172 36.8754 10.484V4.568C36.8754 4.368 36.9274 4.216 37.0314 4.112C37.1354 4.008 37.2834 3.956 37.4754 3.956C37.6674 3.956 37.8154 4.008 37.9194 4.112C38.0314 4.216 38.0874 4.368 38.0874 4.568V10.412C38.0874 10.812 38.1674 11.112 38.3274 11.312C38.4954 11.504 38.7354 11.6 39.0474 11.6C39.1194 11.6 39.1834 11.6 39.2394 11.6C39.2954 11.592 39.3514 11.584 39.4074 11.576C39.5034 11.568 39.5714 11.596 39.6114 11.66C39.6514 11.716 39.6714 11.836 39.6714 12.02C39.6714 12.188 39.6354 12.32 39.5634 12.416C39.4914 12.504 39.3754 12.56 39.2154 12.584C39.1434 12.592 39.0674 12.596 38.9874 12.596C38.9074 12.604 38.8314 12.608 38.7594 12.608Z" fill="#0080FF"/>
<path d="M56 8.4999C56 8.22376 56.2052 7.99554 56.4714 7.95942L56.5455 7.95444L66.1338 7.95488L62.6698 4.50504C62.4564 4.29249 62.4556 3.94713 62.6682 3.73365C62.8614 3.53959 63.1644 3.52133 63.3783 3.67931L63.4396 3.73199L67.8396 8.11308C67.8677 8.1411 67.8921 8.17142 67.9129 8.20345C67.9187 8.21308 67.9247 8.22295 67.9304 8.233C67.9356 8.24163 67.9403 8.25058 67.9447 8.25963C67.9508 8.2728 67.9569 8.28641 67.9623 8.30029C67.9668 8.311 67.9705 8.32141 67.9738 8.3319C67.9779 8.34492 67.9818 8.35879 67.9851 8.37287C67.9876 8.3827 67.9896 8.39216 67.9913 8.40165C67.9938 8.41579 67.9958 8.43041 67.9973 8.44521C67.9986 8.45649 67.9993 8.46768 67.9998 8.47887C67.9999 8.48566 68 8.49276 68 8.4999L67.9997 8.52103C67.9993 8.53173 67.9986 8.54243 67.9975 8.5531L68 8.4999C68 8.53432 67.9968 8.568 67.9907 8.60065C67.9893 8.60845 67.9876 8.61645 67.9858 8.62442C67.9819 8.64084 67.9774 8.65666 67.9722 8.67216C67.9697 8.67986 67.9668 8.68809 67.9636 8.69626C67.9572 8.71267 67.9503 8.72832 67.9427 8.74356C67.9391 8.75072 67.9352 8.75822 67.931 8.76565C67.9242 8.77776 67.9172 8.78928 67.9098 8.8005C67.9045 8.80844 67.8987 8.81671 67.8927 8.82485L67.8879 8.83113C67.8733 8.85033 67.8573 8.86853 67.8402 8.88559L67.8396 8.8861L63.4396 13.2679C63.2261 13.4805 62.8808 13.4798 62.6682 13.2663C62.475 13.0723 62.458 12.7692 62.6169 12.556L62.6698 12.4949L66.1324 9.04579L56.5455 9.04535C56.2442 9.04535 56 8.80115 56 8.4999Z" fill="#0080FF"/>
</svg>
